# xmcd
#
# Track frame offsets:
#	150
#	10885
#	26962
#	41522
#	53305
#	63330
#	74740
#	86535
#	95565
#	110322
#	118630
#	130195
#	145675
#	158805
#
# Disc length: 2317 seconds
#
# Revision: 2
# Processed by: cddbd v1.5.2PL0 Copyright (c) Steve Scherf et al.
# Submitted via: audiograbber 1.83.01
#
DISCID=b8090b0e
DTITLE=Rory Block - When A Woman Gets The Blues
DYEAR=1995
DGENRE=Blues
TTITLE0=Preaching Blues
TTITLE1=Peavine Blues
TTITLE2=Joliet Bound
TTITLE3=Tallahatchie Blues
TTITLE4=I Let My Daddy Do That
TTITLE5=Be Ready When He Comes
TTITLE6=Hellhound On My Trail
TTITLE7=Sweet Sunny South
TTITLE8=Rowdy Blues
TTITLE9=Tain't Long For Day
TTITLE10=On The Wall
TTITLE11=Cypress Grove
TTITLE12=Take My Heart Again
TTITLE13=Railroadin' Some
EXTD=
EXTT0=
EXTT1=
EXTT2=
EXTT3=
EXTT4=
EXTT5=
EXTT6=
EXTT7=
EXTT8=
EXTT9=
EXTT10=
EXTT11=
EXTT12=
EXTT13=
PLAYORDER=
